<mxfile host="Electron" modified="2024-07-13T18:15:17.902Z" agent="Mozilla/5.0 (X11; Linux x86_64) AppleWebKit/537.36 (KHTML, like Gecko) draw.io/24.5.3 Chrome/124.0.6367.207 Electron/30.0.6 Safari/537.36" etag="dW4qBS9Rd46ltWVurH91" version="24.5.3" type="device">
  <diagram name="Page-1" id="d63BSlCNplBEEFsTnN4B">
    <mxGraphModel dx="998" dy="630" grid="1" gridSize="10" guides="1" tooltips="1" connect="1" arrows="1" fold="1" page="1" pageScale="1" pageWidth="850" pageHeight="1100" math="0" shadow="0">
      <root>
        <mxCell id="0" />
        <mxCell id="1" parent="0" />
        <mxCell id="GJKsnoj0tcisjmZ4Kjyj-5" style="edgeStyle=orthogonalEdgeStyle;rounded=0;orthogonalLoop=1;jettySize=auto;html=1;" edge="1" parent="1" source="GJKsnoj0tcisjmZ4Kjyj-1" target="GJKsnoj0tcisjmZ4Kjyj-4">
          <mxGeometry relative="1" as="geometry" />
        </mxCell>
        <mxCell id="GJKsnoj0tcisjmZ4Kjyj-7" style="edgeStyle=orthogonalEdgeStyle;rounded=0;orthogonalLoop=1;jettySize=auto;html=1;entryX=0;entryY=0.5;entryDx=0;entryDy=0;" edge="1" parent="1" source="GJKsnoj0tcisjmZ4Kjyj-1" target="GJKsnoj0tcisjmZ4Kjyj-6">
          <mxGeometry relative="1" as="geometry">
            <Array as="points">
              <mxPoint x="140" y="30" />
            </Array>
          </mxGeometry>
        </mxCell>
        <mxCell id="GJKsnoj0tcisjmZ4Kjyj-1" value="Github" style="rounded=0;whiteSpace=wrap;html=1;" vertex="1" parent="1">
          <mxGeometry x="100" y="90" width="120" height="60" as="geometry" />
        </mxCell>
        <mxCell id="GJKsnoj0tcisjmZ4Kjyj-3" style="edgeStyle=orthogonalEdgeStyle;rounded=0;orthogonalLoop=1;jettySize=auto;html=1;" edge="1" parent="1" source="GJKsnoj0tcisjmZ4Kjyj-2" target="GJKsnoj0tcisjmZ4Kjyj-1">
          <mxGeometry relative="1" as="geometry" />
        </mxCell>
        <mxCell id="GJKsnoj0tcisjmZ4Kjyj-2" value="Local" style="rounded=0;whiteSpace=wrap;html=1;" vertex="1" parent="1">
          <mxGeometry x="100" y="250" width="120" height="60" as="geometry" />
        </mxCell>
        <mxCell id="GJKsnoj0tcisjmZ4Kjyj-4" value="VM" style="rounded=0;whiteSpace=wrap;html=1;verticalAlign=top;" vertex="1" parent="1">
          <mxGeometry x="380" y="90" width="120" height="110" as="geometry" />
        </mxCell>
        <mxCell id="GJKsnoj0tcisjmZ4Kjyj-6" value="Container" style="rounded=0;whiteSpace=wrap;html=1;" vertex="1" parent="1">
          <mxGeometry x="380" width="120" height="60" as="geometry" />
        </mxCell>
        <mxCell id="GJKsnoj0tcisjmZ4Kjyj-8" value="Kubertenets" style="rounded=0;whiteSpace=wrap;html=1;fillColor=#ffe6cc;strokeColor=#d79b00;" vertex="1" parent="1">
          <mxGeometry x="400" y="130" width="80" height="40" as="geometry" />
        </mxCell>
      </root>
    </mxGraphModel>
  </diagram>
</mxfile>
